{"metadata":{"kernelspec":{"language":"python","display_name":"Python 3","name":"python3"},"language_info":{"name":"python","version":"3.12.12","mimetype":"text/x-python","codemirror_mode":{"name":"ipython","version":3},"pygments_lexer":"ipython3","nbconvert_exporter":"python","file_extension":".py"},"kaggle":{"accelerator":"nvidiaTeslaT4","dataSources":[{"sourceType":"datasetVersion","sourceId":15715034,"datasetId":9956894,"databundleVersionId":16655295}],"dockerImageVersionId":31329,"isInternetEnabled":true,"language":"python","sourceType":"notebook","isGpuEnabled":true}},"nbformat_minor":4,"nbformat":4,"cells":[{"cell_type":"code","source":"# This Python 3 environment comes with many helpful analytics libraries installed\n# It is defined by the kaggle/python Docker image: https://github.com/kaggle/docker-python\n# For example, here's several helpful packages to load\n\nimport numpy as np # linear algebra\nimport pandas as pd # data processing, CSV file I/O (e.g. pd.read_csv)\n\n# Input data files are available in the read-only \"../input/\" directory\n# For example, running this (by clicking run or pressing Shift+Enter) will list all files under the input directory\n\nimport os\nfor dirname, _, filenames in os.walk('/kaggle/input'):\n    for filename in filenames:\n        print(os.path.join(dirname, filename))\n\n# You can write up to 20GB to the current directory (/kaggle/working/) that gets preserved as output when you create a version using \"Save & Run All\" \n# You can also write temporary files to /kaggle/temp/, but they won't be saved outside of the current session","metadata":{"_uuid":"8f2839f25d086af736a60e9eeb907d3b93b6e0e5","_cell_guid":"b1076dfc-b9ad-4769-8c92-a6c4dae69d19","trusted":true,"execution":{"iopub.status.busy":"2026-04-13T18:05:21.576839Z","iopub.execute_input":"2026-04-13T18:05:21.577114Z","iopub.status.idle":"2026-04-13T18:05:21.848444Z","shell.execute_reply.started":"2026-04-13T18:05:21.577090Z","shell.execute_reply":"2026-04-13T18:05:21.847836Z"}},"outputs":[{"name":"stdout","text":"/kaggle/input/datasets/fasgadhsxnzmjj/mp4-dataset/SON TUNG M-TP - MAKING MY WAY - OFFICIAL VISUALIZER - YouTube.mp4\n/kaggle/input/datasets/fasgadhsxnzmjj/mp4-dataset/treemp3.mp3\n/kaggle/input/datasets/fasgadhsxnzmjj/mp4-dataset/treemp4.mp4\n","output_type":"stream"}],"execution_count":1},{"cell_type":"code","source":"!pip install faster-whisper","metadata":{"trusted":true,"execution":{"iopub.status.busy":"2026-04-06T17:21:06.788120Z","iopub.execute_input":"2026-04-06T17:21:06.788908Z","iopub.status.idle":"2026-04-06T17:21:17.775205Z","shell.execute_reply.started":"2026-04-06T17:21:06.788879Z","shell.execute_reply":"2026-04-06T17:21:17.774404Z"},"collapsed":true,"jupyter":{"outputs_hidden":true}},"outputs":[{"name":"stdout","text":"Collecting faster-whisper\n  Downloading faster_whisper-1.2.1-py3-none-any.whl.metadata (16 kB)\nCollecting ctranslate2<5,>=4.0 (from faster-whisper)\n  Downloading ctranslate2-4.7.1-cp312-cp312-manylinux_2_27_x86_64.manylinux_2_28_x86_64.whl.metadata (10 kB)\nRequirement already satisfied: huggingface-hub>=0.21 in /usr/local/lib/python3.12/dist-packages (from faster-whisper) (1.4.1)\nRequirement already satisfied: tokenizers<1,>=0.13 in /usr/local/lib/python3.12/dist-packages (from faster-whisper) (0.22.2)\nCollecting onnxruntime<2,>=1.14 (from faster-whisper)\n  Downloading onnxruntime-1.24.4-cp312-cp312-manylinux_2_27_x86_64.manylinux_2_28_x86_64.whl.metadata (5.2 kB)\nCollecting av>=11 (from faster-whisper)\n  Downloading av-17.0.0-cp311-abi3-manylinux_2_28_x86_64.whl.metadata (4.6 kB)\nRequirement already satisfied: tqdm in /usr/local/lib/python3.12/dist-packages (from faster-whisper) (4.67.3)\nRequirement already satisfied: setuptools in /usr/local/lib/python3.12/dist-packages (from ctranslate2<5,>=4.0->faster-whisper) (75.2.0)\nRequirement already satisfied: numpy in /usr/local/lib/python3.12/dist-packages (from ctranslate2<5,>=4.0->faster-whisper) (2.0.2)\nRequirement already satisfied: pyyaml<7,>=5.3 in /usr/local/lib/python3.12/dist-packages (from ctranslate2<5,>=4.0->faster-whisper) (6.0.3)\nRequirement already satisfied: filelock in /usr/local/lib/python3.12/dist-packages (from huggingface-hub>=0.21->faster-whisper) (3.24.3)\nRequirement already satisfied: fsspec>=2023.5.0 in /usr/local/lib/python3.12/dist-packages (from huggingface-hub>=0.21->faster-whisper) (2026.2.0)\nRequirement already satisfied: hf-xet<2.0.0,>=1.2.0 in /usr/local/lib/python3.12/dist-packages (from huggingface-hub>=0.21->faster-whisper) (1.3.0)\nRequirement already satisfied: httpx<1,>=0.23.0 in /usr/local/lib/python3.12/dist-packages (from huggingface-hub>=0.21->faster-whisper) (0.28.1)\nRequirement already satisfied: packaging>=20.9 in /usr/local/lib/python3.12/dist-packages (from huggingface-hub>=0.21->faster-whisper) (26.0)\nRequirement already satisfied: shellingham in /usr/local/lib/python3.12/dist-packages (from huggingface-hub>=0.21->faster-whisper) (1.5.4)\nRequirement already satisfied: typer-slim in /usr/local/lib/python3.12/dist-packages (from huggingface-hub>=0.21->faster-whisper) (0.24.0)\nRequirement already satisfied: typing-extensions>=4.1.0 in /usr/local/lib/python3.12/dist-packages (from huggingface-hub>=0.21->faster-whisper) (4.15.0)\nRequirement already satisfied: flatbuffers in /usr/local/lib/python3.12/dist-packages (from onnxruntime<2,>=1.14->faster-whisper) (25.12.19)\nRequirement already satisfied: protobuf in /usr/local/lib/python3.12/dist-packages (from onnxruntime<2,>=1.14->faster-whisper) (5.29.5)\nRequirement already satisfied: sympy in /usr/local/lib/python3.12/dist-packages (from onnxruntime<2,>=1.14->faster-whisper) (1.14.0)\nRequirement already satisfied: anyio in /usr/local/lib/python3.12/dist-packages (from httpx<1,>=0.23.0->huggingface-hub>=0.21->faster-whisper) (4.12.1)\nRequirement already satisfied: certifi in /usr/local/lib/python3.12/dist-packages (from httpx<1,>=0.23.0->huggingface-hub>=0.21->faster-whisper) (2026.1.4)\nRequirement already satisfied: httpcore==1.* in /usr/local/lib/python3.12/dist-packages (from httpx<1,>=0.23.0->huggingface-hub>=0.21->faster-whisper) (1.0.9)\nRequirement already satisfied: idna in /usr/local/lib/python3.12/dist-packages (from httpx<1,>=0.23.0->huggingface-hub>=0.21->faster-whisper) (3.11)\nRequirement already satisfied: h11>=0.16 in /usr/local/lib/python3.12/dist-packages (from httpcore==1.*->httpx<1,>=0.23.0->huggingface-hub>=0.21->faster-whisper) (0.16.0)\nRequirement already satisfied: mpmath<1.4,>=1.1.0 in /usr/local/lib/python3.12/dist-packages (from sympy->onnxruntime<2,>=1.14->faster-whisper) (1.3.0)\nRequirement already satisfied: typer>=0.24.0 in /usr/local/lib/python3.12/dist-packages (from typer-slim->huggingface-hub>=0.21->faster-whisper) (0.24.1)\nRequirement already satisfied: click>=8.2.1 in /usr/local/lib/python3.12/dist-packages (from typer>=0.24.0->typer-slim->huggingface-hub>=0.21->faster-whisper) (8.3.1)\nRequirement already satisfied: rich>=12.3.0 in /usr/local/lib/python3.12/dist-packages (from typer>=0.24.0->typer-slim->huggingface-hub>=0.21->faster-whisper) (13.9.4)\nRequirement already satisfied: annotated-doc>=0.0.2 in /usr/local/lib/python3.12/dist-packages (from typer>=0.24.0->typer-slim->huggingface-hub>=0.21->faster-whisper) (0.0.4)\nRequirement already satisfied: markdown-it-py>=2.2.0 in /usr/local/lib/python3.12/dist-packages (from rich>=12.3.0->typer>=0.24.0->typer-slim->huggingface-hub>=0.21->faster-whisper) (4.0.0)\nRequirement already satisfied: pygments<3.0.0,>=2.13.0 in /usr/local/lib/python3.12/dist-packages (from rich>=12.3.0->typer>=0.24.0->typer-slim->huggingface-hub>=0.21->faster-whisper) (2.19.2)\nRequirement already satisfied: mdurl~=0.1 in /usr/local/lib/python3.12/dist-packages (from markdown-it-py>=2.2.0->rich>=12.3.0->typer>=0.24.0->typer-slim->huggingface-hub>=0.21->faster-whisper) (0.1.2)\nDownloading faster_whisper-1.2.1-py3-none-any.whl (1.1 MB)\n\u001b[2K   \u001b[90m━━━━━━━━━━━━━━━━━━━━━━━━━━━━━━━━━━━━━━━━\u001b[0m \u001b[32m1.1/1.1 MB\u001b[0m \u001b[31m16.4 MB/s\u001b[0m eta \u001b[36m0:00:00\u001b[0ma \u001b[36m0:00:01\u001b[0m\n\u001b[?25hDownloading av-17.0.0-cp311-abi3-manylinux_2_28_x86_64.whl (36.4 MB)\n\u001b[2K   \u001b[90m━━━━━━━━━━━━━━━━━━━━━━━━━━━━━━━━━━━━━━━━\u001b[0m \u001b[32m36.4/36.4 MB\u001b[0m \u001b[31m53.9 MB/s\u001b[0m eta \u001b[36m0:00:00\u001b[0m:00:01\u001b[0m00:01\u001b[0m\n\u001b[?25hDownloading ctranslate2-4.7.1-cp312-cp312-manylinux_2_27_x86_64.manylinux_2_28_x86_64.whl (39.0 MB)\n\u001b[2K   \u001b[90m━━━━━━━━━━━━━━━━━━━━━━━━━━━━━━━━━━━━━━━━\u001b[0m \u001b[32m39.0/39.0 MB\u001b[0m \u001b[31m47.5 MB/s\u001b[0m eta \u001b[36m0:00:00\u001b[0m:00:01\u001b[0m00:01\u001b[0m\n\u001b[?25hDownloading onnxruntime-1.24.4-cp312-cp312-manylinux_2_27_x86_64.manylinux_2_28_x86_64.whl (17.2 MB)\n\u001b[2K   \u001b[90m━━━━━━━━━━━━━━━━━━━━━━━━━━━━━━━━━━━━━━━━\u001b[0m \u001b[32m17.2/17.2 MB\u001b[0m \u001b[31m83.5 MB/s\u001b[0m eta \u001b[36m0:00:00\u001b[0m:00:01\u001b[0m00:01\u001b[0m\n\u001b[?25hInstalling collected packages: ctranslate2, av, onnxruntime, faster-whisper\nSuccessfully installed av-17.0.0 ctranslate2-4.7.1 faster-whisper-1.2.1 onnxruntime-1.24.4\n","output_type":"stream"}],"execution_count":3},{"cell_type":"code","source":"# Chạy trực tiếp trong cell của Kaggle\n!ffmpeg -i \"/kaggle/input/datasets/fasgadhsxnzmjj/mp4-dataset/SON TUNG M-TP - MAKING MY WAY - OFFICIAL VISUALIZER - YouTube.mp4\" -vn -acodec libmp3lame -q:a 2 /kaggle/working/output.mp3","metadata":{"trusted":true,"execution":{"iopub.status.busy":"2026-04-06T17:23:50.847689Z","iopub.execute_input":"2026-04-06T17:23:50.848537Z","iopub.status.idle":"2026-04-06T17:25:12.942840Z","shell.execute_reply.started":"2026-04-06T17:23:50.848505Z","shell.execute_reply":"2026-04-06T17:25:12.941805Z"}},"outputs":[{"name":"stdout","text":"ffmpeg version 4.4.2-0ubuntu0.22.04.1 Copyright (c) 2000-2021 the FFmpeg developers\n  built with gcc 11 (Ubuntu 11.2.0-19ubuntu1)\n  configuration: --prefix=/usr --extra-version=0ubuntu0.22.04.1 --toolchain=hardened --libdir=/usr/lib/x86_64-linux-gnu --incdir=/usr/include/x86_64-linux-gnu --arch=amd64 --enable-gpl --disable-stripping --enable-gnutls --enable-ladspa --enable-libaom --enable-libass --enable-libbluray --enable-libbs2b --enable-libcaca --enable-libcdio --enable-libcodec2 --enable-libdav1d --enable-libflite --enable-libfontconfig --enable-libfreetype --enable-libfribidi --enable-libgme --enable-libgsm --enable-libjack --enable-libmp3lame --enable-libmysofa --enable-libopenjpeg --enable-libopenmpt --enable-libopus --enable-libpulse --enable-librabbitmq --enable-librubberband --enable-libshine --enable-libsnappy --enable-libsoxr --enable-libspeex --enable-libsrt --enable-libssh --enable-libtheora --enable-libtwolame --enable-libvidstab --enable-libvorbis --enable-libvpx --enable-libwebp --enable-libx265 --enable-libxml2 --enable-libxvid --enable-libzimg --enable-libzmq --enable-libzvbi --enable-lv2 --enable-omx --enable-openal --enable-opencl --enable-opengl --enable-sdl2 --enable-pocketsphinx --enable-librsvg --enable-libmfx --enable-libdc1394 --enable-libdrm --enable-libiec61883 --enable-chromaprint --enable-frei0r --enable-libx264 --enable-shared\n  libavutil      56. 70.100 / 56. 70.100\n  libavcodec     58.134.100 / 58.134.100\n  libavformat    58. 76.100 / 58. 76.100\n  libavdevice    58. 13.100 / 58. 13.100\n  libavfilter     7.110.100 /  7.110.100\n  libswscale      5.  9.100 /  5.  9.100\n  libswresample   3.  9.100 /  3.  9.100\n  libpostproc    55.  9.100 / 55.  9.100\n\u001b[1;36m[libdav1d @ 0x5614afd7a9c0] \u001b[0mlibdav1d 0.9.2\nInput #0, mov,mp4,m4a,3gp,3g2,mj2, from '/kaggle/input/datasets/fasgadhsxnzmjj/mp4-dataset/SON TUNG M-TP - MAKING MY WAY - OFFICIAL VISUALIZER - YouTube.mp4':\n  Metadata:\n    major_brand     : isom\n    minor_version   : 512\n    compatible_brands: isomav01iso2mp41\n    encoder         : Lavf62.4.100\n  Duration: 00:04:18.07, start: 0.000000, bitrate: 210 kb/s\n  Stream #0:0(und): Video: av1 (Main) (av01 / 0x31307661), yuv420p(tv, bt709), 640x360 [SAR 1:1 DAR 16:9], 77 kb/s, 25 fps, 25 tbr, 12800 tbn, 12800 tbc (default)\n    Metadata:\n      handler_name    : VideoHandler\n      vendor_id       : [0][0][0][0]\n  Stream #0:1(eng): Audio: aac (LC) (mp4a / 0x6134706D), 44100 Hz, stereo, fltp, 127 kb/s (default)\n    Metadata:\n      handler_name    : ISO Media file produced by Google Inc.\n      vendor_id       : [0][0][0][0]\nFile '/kaggle/working/output.mp3' already exists. Overwrite? [y/N] ^C\n","output_type":"stream"}],"execution_count":5},{"cell_type":"code","source":"from faster_whisper import WhisperModel\nimport time\n\ndef speech_to_text_pipeline(mp3_path, model_size=\"base\"):\n    # 1. Khởi tạo Model \n    # model_size có thể là: 'tiny', 'base', 'small', 'medium', 'large-v3'\n    # device=\"cuda\" nếu có GPU, hoặc \"cpu\" nếu chạy trên máy thường\n    print(f\"--- Đang tải model {model_size} ---\")\n    model = WhisperModel(model_size, device=\"cuda\", compute_type=\"float16\")\n\n    # 2. Xử lý file MP3\n    # beam_size: số lượng luồng tìm kiếm (càng cao càng chính xác nhưng chậm hơn)\n    # language=\"vi\": chỉ định tiếng Việt để tăng độ chính xác (hoặc để None để tự nhận diện)\n    print(f\"--- Đang xử lý file: {mp3_path} ---\")\n    start_time = time.time()\n    \n    segments, info = model.transcribe(mp3_path, beam_size=5, language=\"en\")\n\n    print(f\"Ngôn ngữ được nhận diện: {info.language} (Độ tin cậy: {info.language_probability:.2f})\")\n\n    # 3. Gom kết quả và in ra\n    full_text = []\n    for segment in segments:\n        text_line = f\"[{segment.start:.2f}s -> {segment.end:.2f}s] {segment.text}\"\n        print(text_line)\n        full_text.append(segment.text)\n\n    end_time = time.time()\n    print(f\"\\n--- Hoàn thành trong {end_time - start_time:.2f} giây ---\")\n    \n    return \" \".join(full_text)\n\n# Chạy pipeline\nif __name__ == \"__main__\":\n    mp3_file = \"/kaggle/working/output.mp3\" \n    result = speech_to_text_pipeline(mp3_file, model_size=\"medium\")","metadata":{"trusted":true,"execution":{"iopub.status.busy":"2026-04-06T17:31:05.808736Z","iopub.execute_input":"2026-04-06T17:31:05.809567Z","iopub.status.idle":"2026-04-06T17:31:17.026238Z","shell.execute_reply.started":"2026-04-06T17:31:05.809532Z","shell.execute_reply":"2026-04-06T17:31:17.025588Z"}},"outputs":[{"name":"stdout","text":"--- Đang tải model medium ---\n--- Đang xử lý file: /kaggle/working/output.mp3 ---\nNgôn ngữ được nhận diện: en (Độ tin cậy: 1.00)\n[0.00s -> 27.00s]  We're looking bright tonight High in the sky, let's try to keep you alive\n[27.00s -> 32.00s]  Alright, just stay away from me Let me down easily\n[32.00s -> 37.00s]  You're too light, you're too light Don't you pray, don't you pray\n[37.00s -> 42.00s]  Seeking for my embrace Wanting my touch, begging me to stay\n[42.00s -> 47.00s]  Every night and day Calling my name, shout it till you break\n[47.00s -> 51.00s]  You took my heart Held it and ripped it apart\n[51.00s -> 56.00s]  Make me your prisoner Get me going right under\n[56.00s -> 60.00s]  Feeling that you'll find Find me again\n[60.00s -> 65.00s]  Nothing to explain Talking my own land\n[65.00s -> 70.00s]  God's helping me out Get over my doubt\n[70.00s -> 76.00s]  Thought I can't live without Fuckin' you right now\n[76.00s -> 96.00s]  Making my way, making my way\n[96.00s -> 101.00s]  I wanna know the cure For all that time you made me injure\n[101.00s -> 105.00s]  All the words you said I'll keep your prayer well and behave\n[105.00s -> 109.00s]  I reckon it's time Pedding my luck on dance\n[109.00s -> 113.00s]  Take a new leap Getting far away from your cheating\n[113.00s -> 118.00s]  Seeking for my embrace Wanting my touch, begging me to stay\n[118.00s -> 123.00s]  Every night and day Calling my name, shout it till you break\n[123.00s -> 127.00s]  You took my heart Held it and ripped it apart\n[127.00s -> 133.00s]  Make me your prisoner Get me going right under\n[133.00s -> 137.00s]  Feeling that you'll find Find me again\n[137.00s -> 142.00s]  Nothing to explain Talking my own land\n[142.00s -> 147.00s]  God's helping me out Get over my doubt\n[147.00s -> 153.00s]  Thought I can't live without Fuckin' you right now\n[153.00s -> 171.00s]  Making my way, making my way\n[171.00s -> 176.00s]  Feeling that you'll find Find me again\n[176.00s -> 181.00s]  Nothing to explain Talking my own land\n[181.00s -> 185.00s]  God's helping me out Get over my doubt\n[185.00s -> 192.00s]  Thought I can't live without Fuckin' you right now\n[207.00s -> 214.00s]  Tellin' me I'll kill for you Like a fool, we don't prove, never know\n[214.00s -> 218.00s]  Words adorned in the thing You won't ever make me ill\n[218.00s -> 224.00s]  In you doubt like a golden mill Riot mill, making proud what I feel\n[224.00s -> 228.00s]  Wish you well and be grand The kingdom of beauty knew\n[228.00s -> 234.00s]  Tellin' me I'll kill for you Like a fool, we don't prove, never know\n[234.00s -> 238.00s]  Words adorned in the thing You won't ever make me ill\n[238.00s -> 244.00s]  In you doubt like a golden mill Riot mill, making proud what I feel\n[244.00s -> 247.00s]  Wish you well and be grand The kingdom of beauty knew\n[247.00s -> 250.00s]  In you doubt like a golden mill Riot mill, making proud what I feel\n\n--- Hoàn thành trong 10.15 giây ---\n","output_type":"stream"}],"execution_count":10},{"cell_type":"code","source":"print(result)","metadata":{"trusted":true,"execution":{"iopub.status.busy":"2026-04-06T17:31:36.339608Z","iopub.execute_input":"2026-04-06T17:31:36.340262Z","iopub.status.idle":"2026-04-06T17:31:36.344635Z","shell.execute_reply.started":"2026-04-06T17:31:36.340232Z","shell.execute_reply":"2026-04-06T17:31:36.343719Z"}},"outputs":[{"name":"stdout","text":" We're looking bright tonight High in the sky, let's try to keep you alive  Alright, just stay away from me Let me down easily  You're too light, you're too light Don't you pray, don't you pray  Seeking for my embrace Wanting my touch, begging me to stay  Every night and day Calling my name, shout it till you break  You took my heart Held it and ripped it apart  Make me your prisoner Get me going right under  Feeling that you'll find Find me again  Nothing to explain Talking my own land  God's helping me out Get over my doubt  Thought I can't live without Fuckin' you right now  Making my way, making my way  I wanna know the cure For all that time you made me injure  All the words you said I'll keep your prayer well and behave  I reckon it's time Pedding my luck on dance  Take a new leap Getting far away from your cheating  Seeking for my embrace Wanting my touch, begging me to stay  Every night and day Calling my name, shout it till you break  You took my heart Held it and ripped it apart  Make me your prisoner Get me going right under  Feeling that you'll find Find me again  Nothing to explain Talking my own land  God's helping me out Get over my doubt  Thought I can't live without Fuckin' you right now  Making my way, making my way  Feeling that you'll find Find me again  Nothing to explain Talking my own land  God's helping me out Get over my doubt  Thought I can't live without Fuckin' you right now  Tellin' me I'll kill for you Like a fool, we don't prove, never know  Words adorned in the thing You won't ever make me ill  In you doubt like a golden mill Riot mill, making proud what I feel  Wish you well and be grand The kingdom of beauty knew  Tellin' me I'll kill for you Like a fool, we don't prove, never know  Words adorned in the thing You won't ever make me ill  In you doubt like a golden mill Riot mill, making proud what I feel  Wish you well and be grand The kingdom of beauty knew  In you doubt like a golden mill Riot mill, making proud what I feel\n","output_type":"stream"}],"execution_count":11},{"cell_type":"code","source":"!pip install transformers==4.37.2","metadata":{"trusted":true,"execution":{"iopub.status.busy":"2026-04-13T16:22:48.555363Z","iopub.execute_input":"2026-04-13T16:22:48.555905Z","iopub.status.idle":"2026-04-13T16:23:00.883909Z","shell.execute_reply.started":"2026-04-13T16:22:48.555873Z","shell.execute_reply":"2026-04-13T16:23:00.883198Z"},"collapsed":true,"jupyter":{"outputs_hidden":true}},"outputs":[{"name":"stdout","text":"Collecting transformers==4.37.2\n  Downloading transformers-4.37.2-py3-none-any.whl.metadata (129 kB)\n\u001b[2K     \u001b[90m━━━━━━━━━━━━━━━━━━━━━━━━━━━━━━━━━━━━━━━\u001b[0m \u001b[32m129.4/129.4 kB\u001b[0m \u001b[31m5.6 MB/s\u001b[0m eta \u001b[36m0:00:00\u001b[0m\n\u001b[?25hRequirement already satisfied: filelock in /usr/local/lib/python3.12/dist-packages (from transformers==4.37.2) (3.24.3)\nCollecting huggingface-hub<1.0,>=0.19.3 (from transformers==4.37.2)\n  Downloading huggingface_hub-0.36.2-py3-none-any.whl.metadata (15 kB)\nRequirement already satisfied: numpy>=1.17 in /usr/local/lib/python3.12/dist-packages (from transformers==4.37.2) (2.0.2)\nRequirement already satisfied: packaging>=20.0 in /usr/local/lib/python3.12/dist-packages (from transformers==4.37.2) (26.0)\nRequirement already satisfied: pyyaml>=5.1 in /usr/local/lib/python3.12/dist-packages (from transformers==4.37.2) (6.0.3)\nRequirement already satisfied: regex!=2019.12.17 in /usr/local/lib/python3.12/dist-packages (from transformers==4.37.2) (2025.11.3)\nRequirement already satisfied: requests in /usr/local/lib/python3.12/dist-packages (from transformers==4.37.2) (2.32.4)\nCollecting tokenizers<0.19,>=0.14 (from transformers==4.37.2)\n  Downloading tokenizers-0.15.2-cp312-cp312-manylinux_2_17_x86_64.manylinux2014_x86_64.whl.metadata (6.7 kB)\nRequirement already satisfied: safetensors>=0.4.1 in /usr/local/lib/python3.12/dist-packages (from transformers==4.37.2) (0.7.0)\nRequirement already satisfied: tqdm>=4.27 in /usr/local/lib/python3.12/dist-packages (from transformers==4.37.2) (4.67.3)\nRequirement already satisfied: fsspec>=2023.5.0 in /usr/local/lib/python3.12/dist-packages (from huggingface-hub<1.0,>=0.19.3->transformers==4.37.2) (2026.2.0)\nRequirement already satisfied: hf-xet<2.0.0,>=1.1.3 in /usr/local/lib/python3.12/dist-packages (from huggingface-hub<1.0,>=0.19.3->transformers==4.37.2) (1.3.0)\nRequirement already satisfied: typing-extensions>=3.7.4.3 in /usr/local/lib/python3.12/dist-packages (from huggingface-hub<1.0,>=0.19.3->transformers==4.37.2) (4.15.0)\nRequirement already satisfied: charset_normalizer<4,>=2 in /usr/local/lib/python3.12/dist-packages (from requests->transformers==4.37.2) (3.4.4)\nRequirement already satisfied: idna<4,>=2.5 in /usr/local/lib/python3.12/dist-packages (from requests->transformers==4.37.2) (3.11)\nRequirement already satisfied: urllib3<3,>=1.21.1 in /usr/local/lib/python3.12/dist-packages (from requests->transformers==4.37.2) (2.5.0)\nRequirement already satisfied: certifi>=2017.4.17 in /usr/local/lib/python3.12/dist-packages (from requests->transformers==4.37.2) (2026.1.4)\nDownloading transformers-4.37.2-py3-none-any.whl (8.4 MB)\n\u001b[2K   \u001b[90m━━━━━━━━━━━━━━━━━━━━━━━━━━━━━━━━━━━━━━━━\u001b[0m \u001b[32m8.4/8.4 MB\u001b[0m \u001b[31m85.2 MB/s\u001b[0m eta \u001b[36m0:00:00\u001b[0m:00:01\u001b[0m0:01\u001b[0m\n\u001b[?25hDownloading huggingface_hub-0.36.2-py3-none-any.whl (566 kB)\n\u001b[2K   \u001b[90m━━━━━━━━━━━━━━━━━━━━━━━━━━━━━━━━━━━━━━━━\u001b[0m \u001b[32m566.4/566.4 kB\u001b[0m \u001b[31m36.5 MB/s\u001b[0m eta \u001b[36m0:00:00\u001b[0m\n\u001b[?25hDownloading tokenizers-0.15.2-cp312-cp312-manylinux_2_17_x86_64.manylinux2014_x86_64.whl (3.6 MB)\n\u001b[2K   \u001b[90m━━━━━━━━━━━━━━━━━━━━━━━━━━━━━━━━━━━━━━━━\u001b[0m \u001b[32m3.6/3.6 MB\u001b[0m \u001b[31m100.1 MB/s\u001b[0m eta \u001b[36m0:00:00\u001b[0m00:01\u001b[0m\n\u001b[?25hInstalling collected packages: huggingface-hub, tokenizers, transformers\n  Attempting uninstall: huggingface-hub\n    Found existing installation: huggingface_hub 1.4.1\n    Uninstalling huggingface_hub-1.4.1:\n      Successfully uninstalled huggingface_hub-1.4.1\n  Attempting uninstall: tokenizers\n    Found existing installation: tokenizers 0.22.2\n    Uninstalling tokenizers-0.22.2:\n      Successfully uninstalled tokenizers-0.22.2\n  Attempting uninstall: transformers\n    Found existing installation: transformers 5.0.0\n    Uninstalling transformers-5.0.0:\n      Successfully uninstalled transformers-5.0.0\n\u001b[31mERROR: pip's dependency resolver does not currently take into account all the packages that are installed. This behaviour is the source of the following dependency conflicts.\nsentence-transformers 5.2.3 requires transformers<6.0.0,>=4.41.0, but you have transformers 4.37.2 which is incompatible.\u001b[0m\u001b[31m\n\u001b[0mSuccessfully installed huggingface-hub-0.36.2 tokenizers-0.15.2 transformers-4.37.2\n","output_type":"stream"}],"execution_count":24},{"cell_type":"code","source":"!pip show transformers","metadata":{"trusted":true,"execution":{"iopub.status.busy":"2026-04-13T16:27:03.137379Z","iopub.execute_input":"2026-04-13T16:27:03.138254Z","iopub.status.idle":"2026-04-13T16:27:05.432342Z","shell.execute_reply.started":"2026-04-13T16:27:03.138207Z","shell.execute_reply":"2026-04-13T16:27:05.431408Z"}},"outputs":[{"name":"stdout","text":"Name: transformers\nVersion: 4.37.2\nSummary: State-of-the-art Machine Learning for JAX, PyTorch and TensorFlow\nHome-page: https://github.com/huggingface/transformers\nAuthor: The Hugging Face team (past and future) with the help of all our contributors (https://github.com/huggingface/transformers/graphs/contributors)\nAuthor-email: transformers@huggingface.co\nLicense: Apache 2.0 License\nLocation: /usr/local/lib/python3.12/dist-packages\nRequires: filelock, huggingface-hub, numpy, packaging, pyyaml, regex, requests, safetensors, tokenizers, tqdm\nRequired-by: kaggle-environments, peft, sentence-transformers\n","output_type":"stream"}],"execution_count":34},{"cell_type":"code","source":"# Transformers không tương thích với Phowhisper chạy thế nào cũng không được đã cài bản transformers cũ nhưng vẫn lỗi\nfrom transformers import pipeline\ntranscriber = pipeline(\"automatic-speech-recognition\", model=\"vinai/PhoWhisper-small\")\noutput = transcriber(\"/kaggle/working/treemp3_chunk_0.mp3\")['text']","metadata":{"trusted":true,"execution":{"iopub.status.busy":"2026-04-13T16:31:51.572845Z","iopub.execute_input":"2026-04-13T16:31:51.573199Z","iopub.status.idle":"2026-04-13T16:31:54.011124Z","shell.execute_reply.started":"2026-04-13T16:31:51.573166Z","shell.execute_reply":"2026-04-13T16:31:54.010071Z"},"collapsed":true,"jupyter":{"outputs_hidden":true}},"outputs":[{"output_type":"display_data","data":{"text/plain":"Loading weights:   0%|          | 0/480 [00:00<?, ?it/s]","application/vnd.jupyter.widget-view+json":{"version_major":2,"version_minor":0,"model_id":"0de4a8bbf88f4dfba50d1bf41369c3d4"}},"metadata":{}},{"name":"stderr","text":"Exception in thread Thread-auto_conversion:\nTraceback (most recent call last):\n  File \"/usr/local/lib/python3.12/dist-packages/huggingface_hub/utils/_http.py\", line 657, in hf_raise_for_status\n  File \"/usr/local/lib/python3.12/dist-packages/httpx/_models.py\", line 829, in raise_for_status\n    raise HTTPStatusError(message, request=request, response=self)\nhttpx.HTTPStatusError: Client error '403 Forbidden' for url 'https://huggingface.co/api/models/vinai/PhoWhisper-small/discussions?p=0'\nFor more information check: https://developer.mozilla.org/en-US/docs/Web/HTTP/Status/403\n\nThe above exception was the direct cause of the following exception:\n\nTraceback (most recent call last):\n  File \"/usr/lib/python3.12/threading.py\", line 1075, in _bootstrap_inner\n    self.run()\n  File \"/usr/lib/python3.12/threading.py\", line 1012, in run\n    self._target(*self._args, **self._kwargs)\n  File \"/usr/local/lib/python3.12/dist-packages/transformers/safetensors_conversion.py\", line 116, in auto_conversion\n  File \"/usr/local/lib/python3.12/dist-packages/transformers/safetensors_conversion.py\", line 95, in auto_conversion\n    \n  File \"/usr/local/lib/python3.12/dist-packages/transformers/safetensors_conversion.py\", line 68, in get_conversion_pr_reference\n    pr_title = \"Adding `safetensors` variant of this model\"\n         ^^^^^^^^^^^^^^^^^^^^^^^^^^^^^^^^^^^^^^^^^^^^^^^^^\n  File \"/usr/local/lib/python3.12/dist-packages/transformers/safetensors_conversion.py\", line 14, in previous_pr\n    def previous_pr(api: HfApi, model_id: str, pr_title: str, token: str) -> Optional[\"Discussion\"]:\n                          ^^^^^^^^^^^^^^^^^^^^^^^^^^^^^^^^^^^^^^^^^^^^^^^^^^^\n  File \"/usr/local/lib/python3.12/dist-packages/huggingface_hub/hf_api.py\", line 6350, in get_repo_discussions\n    Creating a Pull Request with changes can also be done at once with [`HfApi.create_commit`].\n                                ^^^^^^^^^^^^^^^^^^^^^^^^^^^^^^^^^^^^^^^^^^^^^\n  File \"/usr/local/lib/python3.12/dist-packages/huggingface_hub/hf_api.py\", line 6339, in _fetch_discussion_page\n    title: str,\n        ^^^^^^^^\n  File \"/usr/local/lib/python3.12/dist-packages/huggingface_hub/utils/_http.py\", line 724, in hf_raise_for_status\nhuggingface_hub.errors.HfHubHTTPError: (Request ID: Root=1-69dd1a78-312003fe4699eb897c37236b;1547c717-c017-4c04-bc94-ca45952ab339)\n\n403 Forbidden: Discussions are disabled for this repo.\nCannot access content at: https://huggingface.co/api/models/vinai/PhoWhisper-small/discussions?p=0.\nMake sure your token has the correct permissions.\nThe tied weights mapping and config for this model specifies to tie model.decoder.embed_tokens.weight to proj_out.weight, but both are present in the checkpoints, so we will NOT tie them. You should update the config with `tie_word_embeddings=False` to silence this warning\n","output_type":"stream"},{"traceback":["\u001b[0;31m---------------------------------------------------------------------------\u001b[0m","\u001b[0;31mKeyError\u001b[0m                                  Traceback (most recent call last)","\u001b[0;32m/tmp/ipykernel_55/663829061.py\u001b[0m in \u001b[0;36m<cell line: 0>\u001b[0;34m()\u001b[0m\n\u001b[1;32m      1\u001b[0m \u001b[0;32mfrom\u001b[0m \u001b[0mtransformers\u001b[0m \u001b[0;32mimport\u001b[0m \u001b[0mpipeline\u001b[0m\u001b[0;34m\u001b[0m\u001b[0;34m\u001b[0m\u001b[0m\n\u001b[1;32m      2\u001b[0m \u001b[0mtranscriber\u001b[0m \u001b[0;34m=\u001b[0m \u001b[0mpipeline\u001b[0m\u001b[0;34m(\u001b[0m\u001b[0;34m\"automatic-speech-recognition\"\u001b[0m\u001b[0;34m,\u001b[0m \u001b[0mmodel\u001b[0m\u001b[0;34m=\u001b[0m\u001b[0;34m\"vinai/PhoWhisper-small\"\u001b[0m\u001b[0;34m)\u001b[0m\u001b[0;34m\u001b[0m\u001b[0;34m\u001b[0m\u001b[0m\n\u001b[0;32m----> 3\u001b[0;31m \u001b[0moutput\u001b[0m \u001b[0;34m=\u001b[0m \u001b[0mtranscriber\u001b[0m\u001b[0;34m(\u001b[0m\u001b[0;34m\"/kaggle/working/treemp3_chunk_0.mp3\"\u001b[0m\u001b[0;34m)\u001b[0m\u001b[0;34m[\u001b[0m\u001b[0;34m'text'\u001b[0m\u001b[0;34m]\u001b[0m\u001b[0;34m\u001b[0m\u001b[0;34m\u001b[0m\u001b[0m\n\u001b[0m","\u001b[0;32m/usr/local/lib/python3.12/dist-packages/transformers/pipelines/automatic_speech_recognition.py\u001b[0m in \u001b[0;36m__call__\u001b[0;34m(self, inputs, **kwargs)\u001b[0m\n\u001b[1;32m    264\u001b[0m                         (1.0, 1.5)}]`, then it means the model predicts that the word \"hi\" was spoken after `0.5` and\n\u001b[1;32m    265\u001b[0m                         \u001b[0mbefore\u001b[0m\u001b[0;31m \u001b[0m\u001b[0;31m`\u001b[0m\u001b[0;36m0.9\u001b[0m\u001b[0;31m`\u001b[0m \u001b[0mseconds\u001b[0m\u001b[0;34m.\u001b[0m\u001b[0;34m\u001b[0m\u001b[0;34m\u001b[0m\u001b[0m\n\u001b[0;32m--> 266\u001b[0;31m \u001b[0;34m\u001b[0m\u001b[0m\n\u001b[0m\u001b[1;32m    267\u001b[0m                 \u001b[0mFor\u001b[0m \u001b[0mthe\u001b[0m \u001b[0mWhisper\u001b[0m \u001b[0mmodel\u001b[0m\u001b[0;34m,\u001b[0m \u001b[0mtimestamps\u001b[0m \u001b[0mcan\u001b[0m \u001b[0mtake\u001b[0m \u001b[0mone\u001b[0m \u001b[0mof\u001b[0m \u001b[0mtwo\u001b[0m \u001b[0mformats\u001b[0m\u001b[0;34m:\u001b[0m\u001b[0;34m\u001b[0m\u001b[0;34m\u001b[0m\u001b[0m\n\u001b[1;32m    268\u001b[0m                     \u001b[0;34m-\u001b[0m\u001b[0;31m \u001b[0m\u001b[0;31m`\u001b[0m\u001b[0;34m\"word\"\u001b[0m\u001b[0;31m`\u001b[0m\u001b[0;34m:\u001b[0m \u001b[0msame\u001b[0m \u001b[0;32mas\u001b[0m \u001b[0mabove\u001b[0m \u001b[0;32mfor\u001b[0m \u001b[0mword\u001b[0m\u001b[0;34m-\u001b[0m\u001b[0mlevel\u001b[0m \u001b[0mCTC\u001b[0m \u001b[0mtimestamps\u001b[0m\u001b[0;34m.\u001b[0m \u001b[0mWord\u001b[0m\u001b[0;34m-\u001b[0m\u001b[0mlevel\u001b[0m \u001b[0mtimestamps\u001b[0m \u001b[0mare\u001b[0m \u001b[0mpredicted\u001b[0m\u001b[0;34m\u001b[0m\u001b[0;34m\u001b[0m\u001b[0m\n","\u001b[0;32m/usr/local/lib/python3.12/dist-packages/transformers/pipelines/base.py\u001b[0m in \u001b[0;36m__call__\u001b[0;34m(self, inputs, num_workers, batch_size, *args, **kwargs)\u001b[0m\n\u001b[1;32m   1264\u001b[0m \u001b[0;34m\u001b[0m\u001b[0m\n\u001b[1;32m   1265\u001b[0m         \u001b[0;32mif\u001b[0m \u001b[0mdefault\u001b[0m \u001b[0;32mis\u001b[0m \u001b[0;32mnot\u001b[0m \u001b[0;32mNone\u001b[0m\u001b[0;34m:\u001b[0m\u001b[0;34m\u001b[0m\u001b[0;34m\u001b[0m\u001b[0m\n\u001b[0;32m-> 1266\u001b[0;31m             \u001b[0;32mif\u001b[0m \u001b[0;34m\"model\"\u001b[0m \u001b[0;32mnot\u001b[0m \u001b[0;32min\u001b[0m \u001b[0mdefault\u001b[0m \u001b[0;32mand\u001b[0m \u001b[0;34m(\u001b[0m\u001b[0;34m\"pt\"\u001b[0m \u001b[0;32min\u001b[0m \u001b[0mdefault\u001b[0m \u001b[0;32mor\u001b[0m \u001b[0;34m\"tf\"\u001b[0m \u001b[0;32min\u001b[0m \u001b[0mdefault\u001b[0m\u001b[0;34m)\u001b[0m\u001b[0;34m:\u001b[0m\u001b[0;34m\u001b[0m\u001b[0;34m\u001b[0m\u001b[0m\n\u001b[0m\u001b[1;32m   1267\u001b[0m                 \u001b[0mdefault\u001b[0m \u001b[0;34m=\u001b[0m \u001b[0;34m{\u001b[0m\u001b[0;34m\"model\"\u001b[0m\u001b[0;34m:\u001b[0m \u001b[0mdefault\u001b[0m\u001b[0;34m}\u001b[0m\u001b[0;34m\u001b[0m\u001b[0;34m\u001b[0m\u001b[0m\n\u001b[1;32m   1268\u001b[0m             \u001b[0mtask_impl\u001b[0m\u001b[0;34m[\u001b[0m\u001b[0;34m\"default\"\u001b[0m\u001b[0;34m]\u001b[0m \u001b[0;34m=\u001b[0m \u001b[0mdefault\u001b[0m\u001b[0;34m\u001b[0m\u001b[0;34m\u001b[0m\u001b[0m\n","\u001b[0;32m/usr/local/lib/python3.12/dist-packages/transformers/pipelines/pt_utils.py\u001b[0m in \u001b[0;36m__next__\u001b[0;34m(self)\u001b[0m\n\u001b[1;32m    124\u001b[0m         \u001b[0mitem\u001b[0m \u001b[0;34m=\u001b[0m \u001b[0mnext\u001b[0m\u001b[0;34m(\u001b[0m\u001b[0mself\u001b[0m\u001b[0;34m.\u001b[0m\u001b[0miterator\u001b[0m\u001b[0;34m)\u001b[0m\u001b[0;34m\u001b[0m\u001b[0;34m\u001b[0m\u001b[0m\n\u001b[1;32m    125\u001b[0m         \u001b[0mprocessed\u001b[0m \u001b[0;34m=\u001b[0m \u001b[0mself\u001b[0m\u001b[0;34m.\u001b[0m\u001b[0minfer\u001b[0m\u001b[0;34m(\u001b[0m\u001b[0mitem\u001b[0m\u001b[0;34m,\u001b[0m \u001b[0;34m**\u001b[0m\u001b[0mself\u001b[0m\u001b[0;34m.\u001b[0m\u001b[0mparams\u001b[0m\u001b[0;34m)\u001b[0m\u001b[0;34m\u001b[0m\u001b[0;34m\u001b[0m\u001b[0m\n\u001b[0;32m--> 126\u001b[0;31m         \u001b[0;31m# We now have a batch of \"inferred things\".\u001b[0m\u001b[0;34m\u001b[0m\u001b[0;34m\u001b[0m\u001b[0m\n\u001b[0m\u001b[1;32m    127\u001b[0m         \u001b[0;32mif\u001b[0m \u001b[0mself\u001b[0m\u001b[0;34m.\u001b[0m\u001b[0mloader_batch_size\u001b[0m \u001b[0;32mis\u001b[0m \u001b[0;32mnot\u001b[0m \u001b[0;32mNone\u001b[0m\u001b[0;34m:\u001b[0m\u001b[0;34m\u001b[0m\u001b[0;34m\u001b[0m\u001b[0m\n\u001b[1;32m    128\u001b[0m             \u001b[0;31m# Try to infer the size of the batch\u001b[0m\u001b[0;34m\u001b[0m\u001b[0;34m\u001b[0m\u001b[0m\n","\u001b[0;32m/usr/local/lib/python3.12/dist-packages/transformers/pipelines/pt_utils.py\u001b[0m in \u001b[0;36m__next__\u001b[0;34m(self)\u001b[0m\n\u001b[1;32m    269\u001b[0m                     \u001b[0mfirst_tensor\u001b[0m \u001b[0;34m=\u001b[0m \u001b[0mprocessed\u001b[0m\u001b[0;34m\u001b[0m\u001b[0;34m\u001b[0m\u001b[0m\n\u001b[1;32m    270\u001b[0m                 \u001b[0;32melse\u001b[0m\u001b[0;34m:\u001b[0m\u001b[0;34m\u001b[0m\u001b[0;34m\u001b[0m\u001b[0m\n\u001b[0;32m--> 271\u001b[0;31m                     \u001b[0mkey\u001b[0m \u001b[0;34m=\u001b[0m \u001b[0mlist\u001b[0m\u001b[0;34m(\u001b[0m\u001b[0mprocessed\u001b[0m\u001b[0;34m.\u001b[0m\u001b[0mkeys\u001b[0m\u001b[0;34m(\u001b[0m\u001b[0;34m)\u001b[0m\u001b[0;34m)\u001b[0m\u001b[0;34m[\u001b[0m\u001b[0;36m0\u001b[0m\u001b[0;34m]\u001b[0m\u001b[0;34m\u001b[0m\u001b[0;34m\u001b[0m\u001b[0m\n\u001b[0m\u001b[1;32m    272\u001b[0m                     \u001b[0mfirst_tensor\u001b[0m \u001b[0;34m=\u001b[0m \u001b[0mprocessed\u001b[0m\u001b[0;34m[\u001b[0m\u001b[0mkey\u001b[0m\u001b[0;34m]\u001b[0m\u001b[0;34m\u001b[0m\u001b[0;34m\u001b[0m\u001b[0m\n\u001b[1;32m    273\u001b[0m                 \u001b[0;32mif\u001b[0m \u001b[0misinstance\u001b[0m\u001b[0;34m(\u001b[0m\u001b[0mfirst_tensor\u001b[0m\u001b[0;34m,\u001b[0m \u001b[0mlist\u001b[0m\u001b[0;34m)\u001b[0m\u001b[0;34m:\u001b[0m\u001b[0;34m\u001b[0m\u001b[0;34m\u001b[0m\u001b[0m\n","\u001b[0;32m/usr/local/lib/python3.12/dist-packages/torch/utils/data/dataloader.py\u001b[0m in \u001b[0;36m__next__\u001b[0;34m(self)\u001b[0m\n\u001b[1;32m    739\u001b[0m                 \u001b[0;31m# TODO(https://github.com/pytorch/pytorch/issues/76750)\u001b[0m\u001b[0;34m\u001b[0m\u001b[0;34m\u001b[0m\u001b[0m\n\u001b[1;32m    740\u001b[0m                 \u001b[0mself\u001b[0m\u001b[0;34m.\u001b[0m\u001b[0m_reset\u001b[0m\u001b[0;34m(\u001b[0m\u001b[0;34m)\u001b[0m  \u001b[0;31m# type: ignore[call-arg]\u001b[0m\u001b[0;34m\u001b[0m\u001b[0;34m\u001b[0m\u001b[0m\n\u001b[0;32m--> 741\u001b[0;31m             \u001b[0mdata\u001b[0m \u001b[0;34m=\u001b[0m \u001b[0mself\u001b[0m\u001b[0;34m.\u001b[0m\u001b[0m_next_data\u001b[0m\u001b[0;34m(\u001b[0m\u001b[0;34m)\u001b[0m\u001b[0;34m\u001b[0m\u001b[0;34m\u001b[0m\u001b[0m\n\u001b[0m\u001b[1;32m    742\u001b[0m             \u001b[0mself\u001b[0m\u001b[0;34m.\u001b[0m\u001b[0m_num_yielded\u001b[0m \u001b[0;34m+=\u001b[0m \u001b[0;36m1\u001b[0m\u001b[0;34m\u001b[0m\u001b[0;34m\u001b[0m\u001b[0m\n\u001b[1;32m    743\u001b[0m             if (\n","\u001b[0;32m/usr/local/lib/python3.12/dist-packages/torch/utils/data/dataloader.py\u001b[0m in \u001b[0;36m_next_data\u001b[0;34m(self)\u001b[0m\n\u001b[1;32m    799\u001b[0m     \u001b[0;32mdef\u001b[0m \u001b[0m_next_data\u001b[0m\u001b[0;34m(\u001b[0m\u001b[0mself\u001b[0m\u001b[0;34m)\u001b[0m\u001b[0;34m:\u001b[0m\u001b[0;34m\u001b[0m\u001b[0;34m\u001b[0m\u001b[0m\n\u001b[1;32m    800\u001b[0m         \u001b[0mindex\u001b[0m \u001b[0;34m=\u001b[0m \u001b[0mself\u001b[0m\u001b[0;34m.\u001b[0m\u001b[0m_next_index\u001b[0m\u001b[0;34m(\u001b[0m\u001b[0;34m)\u001b[0m  \u001b[0;31m# may raise StopIteration\u001b[0m\u001b[0;34m\u001b[0m\u001b[0;34m\u001b[0m\u001b[0m\n\u001b[0;32m--> 801\u001b[0;31m         \u001b[0mdata\u001b[0m \u001b[0;34m=\u001b[0m \u001b[0mself\u001b[0m\u001b[0;34m.\u001b[0m\u001b[0m_dataset_fetcher\u001b[0m\u001b[0;34m.\u001b[0m\u001b[0mfetch\u001b[0m\u001b[0;34m(\u001b[0m\u001b[0mindex\u001b[0m\u001b[0;34m)\u001b[0m  \u001b[0;31m# may raise StopIteration\u001b[0m\u001b[0;34m\u001b[0m\u001b[0;34m\u001b[0m\u001b[0m\n\u001b[0m\u001b[1;32m    802\u001b[0m         \u001b[0;32mif\u001b[0m \u001b[0mself\u001b[0m\u001b[0;34m.\u001b[0m\u001b[0m_pin_memory\u001b[0m\u001b[0;34m:\u001b[0m\u001b[0;34m\u001b[0m\u001b[0;34m\u001b[0m\u001b[0m\n\u001b[1;32m    803\u001b[0m             \u001b[0mdata\u001b[0m \u001b[0;34m=\u001b[0m \u001b[0m_utils\u001b[0m\u001b[0;34m.\u001b[0m\u001b[0mpin_memory\u001b[0m\u001b[0;34m.\u001b[0m\u001b[0mpin_memory\u001b[0m\u001b[0;34m(\u001b[0m\u001b[0mdata\u001b[0m\u001b[0;34m,\u001b[0m \u001b[0mself\u001b[0m\u001b[0;34m.\u001b[0m\u001b[0m_pin_memory_device\u001b[0m\u001b[0;34m)\u001b[0m\u001b[0;34m\u001b[0m\u001b[0;34m\u001b[0m\u001b[0m\n","\u001b[0;32m/usr/local/lib/python3.12/dist-packages/torch/utils/data/_utils/fetch.py\u001b[0m in \u001b[0;36mfetch\u001b[0;34m(self, possibly_batched_index)\u001b[0m\n\u001b[1;32m     33\u001b[0m             \u001b[0;32mfor\u001b[0m \u001b[0m_\u001b[0m \u001b[0;32min\u001b[0m \u001b[0mpossibly_batched_index\u001b[0m\u001b[0;34m:\u001b[0m\u001b[0;34m\u001b[0m\u001b[0;34m\u001b[0m\u001b[0m\n\u001b[1;32m     34\u001b[0m                 \u001b[0;32mtry\u001b[0m\u001b[0;34m:\u001b[0m\u001b[0;34m\u001b[0m\u001b[0;34m\u001b[0m\u001b[0m\n\u001b[0;32m---> 35\u001b[0;31m                     \u001b[0mdata\u001b[0m\u001b[0;34m.\u001b[0m\u001b[0mappend\u001b[0m\u001b[0;34m(\u001b[0m\u001b[0mnext\u001b[0m\u001b[0;34m(\u001b[0m\u001b[0mself\u001b[0m\u001b[0;34m.\u001b[0m\u001b[0mdataset_iter\u001b[0m\u001b[0;34m)\u001b[0m\u001b[0;34m)\u001b[0m\u001b[0;34m\u001b[0m\u001b[0;34m\u001b[0m\u001b[0m\n\u001b[0m\u001b[1;32m     36\u001b[0m                 \u001b[0;32mexcept\u001b[0m \u001b[0mStopIteration\u001b[0m\u001b[0;34m:\u001b[0m\u001b[0;34m\u001b[0m\u001b[0;34m\u001b[0m\u001b[0m\n\u001b[1;32m     37\u001b[0m                     \u001b[0mself\u001b[0m\u001b[0;34m.\u001b[0m\u001b[0mended\u001b[0m \u001b[0;34m=\u001b[0m \u001b[0;32mTrue\u001b[0m\u001b[0;34m\u001b[0m\u001b[0;34m\u001b[0m\u001b[0m\n","\u001b[0;32m/usr/local/lib/python3.12/dist-packages/transformers/pipelines/pt_utils.py\u001b[0m in \u001b[0;36m__next__\u001b[0;34m(self)\u001b[0m\n\u001b[1;32m    186\u001b[0m             \u001b[0;31m# ChunkIterator will keep feeding until ALL elements of iterator\u001b[0m\u001b[0;34m\u001b[0m\u001b[0;34m\u001b[0m\u001b[0m\n\u001b[1;32m    187\u001b[0m             \u001b[0;31m# all have created their subiterator and have been iterating against.\u001b[0m\u001b[0;34m\u001b[0m\u001b[0;34m\u001b[0m\u001b[0m\n\u001b[0;32m--> 188\u001b[0;31m             \u001b[0;31m#\u001b[0m\u001b[0;34m\u001b[0m\u001b[0;34m\u001b[0m\u001b[0m\n\u001b[0m\u001b[1;32m    189\u001b[0m             \u001b[0;31m# Another way to look at it, is we're basically flattening lists of lists\u001b[0m\u001b[0;34m\u001b[0m\u001b[0;34m\u001b[0m\u001b[0m\n\u001b[1;32m    190\u001b[0m             \u001b[0;31m# into a single list, but with generators\u001b[0m\u001b[0;34m\u001b[0m\u001b[0;34m\u001b[0m\u001b[0m\n","\u001b[0;32m/usr/local/lib/python3.12/dist-packages/transformers/pipelines/automatic_speech_recognition.py\u001b[0m in \u001b[0;36mpreprocess\u001b[0;34m(self, inputs, chunk_length_s, stride_length_s)\u001b[0m\n\u001b[1;32m    484\u001b[0m             \u001b[0;32melse\u001b[0m\u001b[0;34m:\u001b[0m\u001b[0;34m\u001b[0m\u001b[0;34m\u001b[0m\u001b[0m\n\u001b[1;32m    485\u001b[0m                 raise ValueError(\n\u001b[0;32m--> 486\u001b[0;31m                     \u001b[0;34m\"Seq2Seq speech recognition model requires either a \"\u001b[0m\u001b[0;34m\u001b[0m\u001b[0;34m\u001b[0m\u001b[0m\n\u001b[0m\u001b[1;32m    487\u001b[0m                     \u001b[0;34mf\"`input_features` or `input_values` key, but only has {model_inputs.keys()}\"\u001b[0m\u001b[0;34m\u001b[0m\u001b[0;34m\u001b[0m\u001b[0m\n\u001b[1;32m    488\u001b[0m                 )\n","\u001b[0;32m/usr/lib/python3.12/_collections_abc.py\u001b[0m in \u001b[0;36mpop\u001b[0;34m(self, key, default)\u001b[0m\n","\u001b[0;32m/usr/local/lib/python3.12/dist-packages/transformers/feature_extraction_utils.py\u001b[0m in \u001b[0;36m__getitem__\u001b[0;34m(self, item)\u001b[0m\n\u001b[1;32m     88\u001b[0m             \u001b[0;32mraise\u001b[0m \u001b[0mKeyError\u001b[0m\u001b[0;34m(\u001b[0m\u001b[0;34m\"Indexing with integers is not available when using Python based feature extractors\"\u001b[0m\u001b[0;34m)\u001b[0m\u001b[0;34m\u001b[0m\u001b[0;34m\u001b[0m\u001b[0m\n\u001b[1;32m     89\u001b[0m \u001b[0;34m\u001b[0m\u001b[0m\n\u001b[0;32m---> 90\u001b[0;31m     \u001b[0;32mdef\u001b[0m \u001b[0m__getattr__\u001b[0m\u001b[0;34m(\u001b[0m\u001b[0mself\u001b[0m\u001b[0;34m,\u001b[0m \u001b[0mitem\u001b[0m\u001b[0;34m:\u001b[0m \u001b[0mstr\u001b[0m\u001b[0;34m)\u001b[0m\u001b[0;34m:\u001b[0m\u001b[0;34m\u001b[0m\u001b[0;34m\u001b[0m\u001b[0m\n\u001b[0m\u001b[1;32m     91\u001b[0m         \u001b[0;32mtry\u001b[0m\u001b[0;34m:\u001b[0m\u001b[0;34m\u001b[0m\u001b[0;34m\u001b[0m\u001b[0m\n\u001b[1;32m     92\u001b[0m             \u001b[0;32mreturn\u001b[0m \u001b[0mself\u001b[0m\u001b[0;34m.\u001b[0m\u001b[0mdata\u001b[0m\u001b[0;34m[\u001b[0m\u001b[0mitem\u001b[0m\u001b[0;34m]\u001b[0m\u001b[0;34m\u001b[0m\u001b[0;34m\u001b[0m\u001b[0m\n","\u001b[0;31mKeyError\u001b[0m: 'num_frames'"],"ename":"KeyError","evalue":"'num_frames'","output_type":"error"}],"execution_count":39},{"cell_type":"code","source":"import torch\nimport librosa\nfrom transformers import AutoProcessor, AutoModelForSpeechSeq2Seq\n\nmodel_id = \"vinai/PhoWhisper-small\"\n\n# Load processor + model\nprocessor = AutoProcessor.from_pretrained(model_id)\nmodel = AutoModelForSpeechSeq2Seq.from_pretrained(model_id)\n\n# fix warning (optional)\nmodel.config.tie_word_embeddings = False\n\n# load audio\naudio, sr = librosa.load(\"/kaggle/working/treemp3_chunk_0.mp3\", sr=16000)\n\n# convert -> input features\ninputs = processor(\n    audio,\n    sampling_rate=sr,\n    return_tensors=\"pt\"\n)\n\n# generate\nwith torch.no_grad():\n    generated_ids = model.generate(inputs[\"input_features\"])\n\n# decode\ntext = processor.batch_decode(generated_ids, skip_special_tokens=False)[0]\n\nprint(text)","metadata":{"trusted":true,"execution":{"iopub.status.busy":"2026-04-13T17:45:12.765330Z","iopub.execute_input":"2026-04-13T17:45:12.765898Z","iopub.status.idle":"2026-04-13T17:45:23.117111Z","shell.execute_reply.started":"2026-04-13T17:45:12.765865Z","shell.execute_reply":"2026-04-13T17:45:23.116391Z"},"collapsed":true,"jupyter":{"outputs_hidden":true}},"outputs":[{"output_type":"display_data","data":{"text/plain":"Loading weights:   0%|          | 0/480 [00:00<?, ?it/s]","application/vnd.jupyter.widget-view+json":{"version_major":2,"version_minor":0,"model_id":"13192f576419468b8fd7e382d9e0ba33"}},"metadata":{}},{"name":"stderr","text":"Exception in thread Thread-auto_conversion:\nTraceback (most recent call last):\n  File \"/usr/local/lib/python3.12/dist-packages/huggingface_hub/utils/_http.py\", line 657, in hf_raise_for_status\n  File \"/usr/local/lib/python3.12/dist-packages/httpx/_models.py\", line 829, in raise_for_status\n    raise HTTPStatusError(message, request=request, response=self)\nhttpx.HTTPStatusError: Client error '403 Forbidden' for url 'https://huggingface.co/api/models/vinai/PhoWhisper-small/discussions?p=0'\nFor more information check: https://developer.mozilla.org/en-US/docs/Web/HTTP/Status/403\n\nThe above exception was the direct cause of the following exception:\n\nTraceback (most recent call last):\n  File \"/usr/lib/python3.12/threading.py\", line 1075, in _bootstrap_inner\n    self.run()\n  File \"/usr/lib/python3.12/threading.py\", line 1012, in run\n    self._target(*self._args, **self._kwargs)\n  File \"/usr/local/lib/python3.12/dist-packages/transformers/safetensors_conversion.py\", line 116, in auto_conversion\n  File \"/usr/local/lib/python3.12/dist-packages/transformers/safetensors_conversion.py\", line 95, in auto_conversion\n    \n  File \"/usr/local/lib/python3.12/dist-packages/transformers/safetensors_conversion.py\", line 68, in get_conversion_pr_reference\n    pr_title = \"Adding `safetensors` variant of this model\"\n         ^^^^^^^^^^^^^^^^^^^^^^^^^^^^^^^^^^^^^^^^^^^^^^^^^\n  File \"/usr/local/lib/python3.12/dist-packages/transformers/safetensors_conversion.py\", line 14, in previous_pr\n    def previous_pr(api: HfApi, model_id: str, pr_title: str, token: str) -> Optional[\"Discussion\"]:\n                          ^^^^^^^^^^^^^^^^^^^^^^^^^^^^^^^^^^^^^^^^^^^^^^^^^^^\n  File \"/usr/local/lib/python3.12/dist-packages/huggingface_hub/hf_api.py\", line 6350, in get_repo_discussions\n    Creating a Pull Request with changes can also be done at once with [`HfApi.create_commit`].\n                                ^^^^^^^^^^^^^^^^^^^^^^^^^^^^^^^^^^^^^^^^^^^^^\n  File \"/usr/local/lib/python3.12/dist-packages/huggingface_hub/hf_api.py\", line 6339, in _fetch_discussion_page\n    title: str,\n        ^^^^^^^^\n  File \"/usr/local/lib/python3.12/dist-packages/huggingface_hub/utils/_http.py\", line 724, in hf_raise_for_status\nhuggingface_hub.errors.HfHubHTTPError: (Request ID: Root=1-69dd2bab-5a6647450e694b7e21e8b774;50e0a35b-ff2a-4652-9d84-baab4241aea9)\n\n403 Forbidden: Discussions are disabled for this repo.\nCannot access content at: https://huggingface.co/api/models/vinai/PhoWhisper-small/discussions?p=0.\nMake sure your token has the correct permissions.\nThe tied weights mapping and config for this model specifies to tie model.decoder.embed_tokens.weight to proj_out.weight, but both are present in the checkpoints, so we will NOT tie them. You should update the config with `tie_word_embeddings=False` to silence this warning\n","output_type":"stream"},{"name":"stdout","text":"xin chào và rất vui với tất cả các bạn bản năng tổ tiên khiến chúng ta phấn khích trước những thứ mới mẻ kỳ lạ hoặc bất quỳ tắc đó là lý do mà.\n","output_type":"stream"}],"execution_count":48},{"cell_type":"code","source":"import torch \nimport librosa \nfrom transformers import AutoProcessor, AutoModelForSpeechSeq2Seq \nimport subprocess \nfrom pydub import AudioSegment \nimport os \n\nmodel_id = \"vinai/PhoWhisper-small\" # Load processor + model \n\nprocessor = AutoProcessor.from_pretrained(model_id) \nmodel = AutoModelForSpeechSeq2Seq.from_pretrained(model_id) \n\n# fix warning (optional) \nmodel.config.tie_word_embeddings = False","metadata":{"trusted":true},"outputs":[],"execution_count":null},{"cell_type":"code","source":"class Mp4_to_text:\n    def __init__(self, language, input_file_path_mp4, time_chunk_mp3, folder_path_chunk, output_file_path_mp3, output_file_path_txt,gpu): \n        # ngôn ngữ của video đầu vào hiện tại chỉ lấy tiếng việt. Trong tương lai sẽ update và thêm các model để xử lý video tiếng nước ngoài\n        self.language = language\n        # đường dẫn của video mp4 đầu vào\n        self.ip_path = input_file_path_mp4\n        # độ dài mỗi chunk để model trích xuất khuyến nghị không nên sửa để tránh model bị quá tham số -> lỗi\n        self.chunk_length_ms = time_chunk_mp3\n        # đường dẫn của folder tổng lưu trữ chunk\n        self.base_folder =  folder_path_chunk\n        # đường dẫn của file audio mp3 sau khi được chuyển từ video mp4\n        self.op_file_mp3 = output_file_path_mp3\n        # đường dẫn kết quả trả về file txt\n        self.op_file_txt = output_file_path_txt\n        # nếu máy có gpu thì là True không thì là False tối ưu cho tốc độ nếu có gpu\n        self.gpu = \"True\"\n        \n\n        # ví dụ:\n        # self.language = \"vi\"\n        # self.ip_path = \"/kaggle/input/datasets/fasgadhsxnzmjj/mp4-dataset/treemp4.mp4\"\n        # self.chunk_length_ms = 30 * 1000 \n        # self.base_folder = \"/kaggle/working/filemp3_chunk\"\n        # self.op_file_mp3 = \"/kaggle/working/output2.mp3\"\n        # self.gpu = \"True\"\n\n    def split_audio_into_chunks(self, file_path):\n        folder = os.path.join(\n            self.base_folder,\n            os.path.splitext(os.path.basename(file_path))[0]\n        )\n\n        os.makedirs(folder, exist_ok=True)\n\n        audio = AudioSegment.from_file(file_path)\n        duration = len(audio)\n\n        for i, start in enumerate(range(0, duration, self.chunk_length_ms)):\n            chunk = audio[start:start + self.chunk_length_ms]\n            chunk_path = os.path.join(folder, f\"chunk_{i}.mp3\")\n            chunk.export(chunk_path, format=\"mp3\")\n\n        return folder\n\n    def mp4_to_mp3(self):\n        command = [\n            \"ffmpeg\", \"-i\", self.ip_path,\n            \"-vn\",\n            \"-acodec\", \"libmp3lame\",\n            \"-ab\", \"192k\",\n            self.op_file_mp3\n        ]\n        subprocess.run(command, check=True)\n\n    def mp3_to_text_phoWhisper(self, file_mp3):\n        audio, sr = librosa.load(file_mp3, sr=16000)\n\n        inputs = processor(\n            audio,\n            sampling_rate=sr,\n            return_tensors=\"pt\"\n        )\n\n        with torch.no_grad():\n            ids = model.generate(inputs[\"input_features\"])\n\n        return processor.batch_decode(ids, skip_special_tokens=True)[0]\n\n    def batch_mp3_to_text(self, file_list):\n        # dùng nếu máy có GPU\n        device = \"cuda\" if torch.cuda.is_available() else \"cpu\"\n        model.to(device)\n        \n        audios = []\n    \n        # Load toàn bộ audio\n        for file_mp3 in file_list:\n            audio, sr = librosa.load(file_mp3, sr=16000)\n            audios.append(audio)\n    \n        # Convert batch\n        inputs = processor(\n            audios,\n            sampling_rate=16000,\n            return_tensors=\"pt\",\n            padding=True   # QUAN TRỌNG\n        )\n    \n        # Đưa lên GPU\n        inputs = {k: v.to(device) for k, v in inputs.items()}\n    \n        # Inference 1 lần\n        with torch.no_grad():\n            generated_ids = model.generate(\n                inputs[\"input_features\"],\n                max_new_tokens=256,\n                do_sample=False\n            )\n    \n        # Decode batch\n        texts = processor.batch_decode(generated_ids, skip_special_tokens=True)\n    \n        return texts\n\n    def save_to_txt(self, text, output_path=\"output.txt\"):\n        with open(output_path, \"w\", encoding=\"utf-8\") as f:\n            f.write(text)\n    \n    def op_vi(self):\n        result = []\n\n        self.mp4_to_mp3()\n        folder = self.split_audio_into_chunks(self.op_file_mp3)\n\n        files = sorted(\n            [f for f in os.listdir(folder) if f.endswith(\".mp3\")],\n            key=lambda x: int(x.split(\"_\")[-1].split(\".\")[0])\n        )\n\n        if self.gpu == \"False\":\n            for f in files:\n                path = os.path.join(folder, f)\n                text = self.mp3_to_text_phoWhisper(path)\n                result.append(text)\n\n        if self.gpu == \"True\":\n            file_paths = [os.path.join(folder, f) for f in files]\n            # chia batch (rất quan trọng nếu nhiều file)\n            batch_size = 4\n        \n            for i in range(0, len(file_paths), batch_size):\n                batch_files = file_paths[i:i + batch_size]\n                texts = self.batch_mp3_to_text(batch_files)\n                result.extend(texts)\n        \n        # return result\n        full_text = \" \".join(result)\n        self.save_to_txt(full_text, self.op_file_txt)\n        return full_text\n\n\n# ngôn ngữ của video đầu vào hiện tại chỉ lấy tiếng việt. Trong tương lai sẽ update và thêm các model để xử lý video tiếng nước ngoài\nlanguage = \"vi\"\n# đường dẫn của video mp4 đầu vào\ninput_file_path_mp4 = \"/kaggle/input/datasets/fasgadhsxnzmjj/mp4-dataset/treemp4.mp4\"\n# độ dài mỗi chunk để model trích xuất khuyến nghị không nên sửa để tránh model bị quá tham số -> lỗi\ntime_chunk_mp3 = 30 * 1000\n# đường dẫn của folder tổng lưu trữ chunk\nfolder_path_chunk = \"/kaggle/working/filemp3_chunk\"\n# đường dẫn của file audio mp3 sau khi được chuyển từ video mp4\noutput_file_path_mp3 = \"/kaggle/working/output3.mp3\"\n# đường dẫn kết quả trả về file txt\noutput_file_path_txt = \"/kaggle/working/output.txt\"\n# nếu máy có gpu thì là True không thì là False tối ưu cho tốc độ nếu có gpu\ngpu = \"True\"\n\ntest = Mp4_to_text(language, input_file_path_mp4, time_chunk_mp3, folder_path_chunk, output_file_path_mp3, output_file_path_txt, gpu)\nprint(test.op_vi())","metadata":{"trusted":true,"execution":{"iopub.status.busy":"2026-04-13T18:36:37.549246Z","iopub.execute_input":"2026-04-13T18:36:37.549809Z","iopub.status.idle":"2026-04-13T18:37:38.027425Z","shell.execute_reply.started":"2026-04-13T18:36:37.549772Z","shell.execute_reply":"2026-04-13T18:37:38.026654Z"}},"outputs":[{"name":"stderr","text":"ffmpeg version 4.4.2-0ubuntu0.22.04.1 Copyright (c) 2000-2021 the FFmpeg developers\n  built with gcc 11 (Ubuntu 11.2.0-19ubuntu1)\n  configuration: --prefix=/usr --extra-version=0ubuntu0.22.04.1 --toolchain=hardened --libdir=/usr/lib/x86_64-linux-gnu --incdir=/usr/include/x86_64-linux-gnu --arch=amd64 --enable-gpl --disable-stripping --enable-gnutls --enable-ladspa --enable-libaom --enable-libass --enable-libbluray --enable-libbs2b --enable-libcaca --enable-libcdio --enable-libcodec2 --enable-libdav1d --enable-libflite --enable-libfontconfig --enable-libfreetype --enable-libfribidi --enable-libgme --enable-libgsm --enable-libjack --enable-libmp3lame --enable-libmysofa --enable-libopenjpeg --enable-libopenmpt --enable-libopus --enable-libpulse --enable-librabbitmq --enable-librubberband --enable-libshine --enable-libsnappy --enable-libsoxr --enable-libspeex --enable-libsrt --enable-libssh --enable-libtheora --enable-libtwolame --enable-libvidstab --enable-libvorbis --enable-libvpx --enable-libwebp --enable-libx265 --enable-libxml2 --enable-libxvid --enable-libzimg --enable-libzmq --enable-libzvbi --enable-lv2 --enable-omx --enable-openal --enable-opencl --enable-opengl --enable-sdl2 --enable-pocketsphinx --enable-librsvg --enable-libmfx --enable-libdc1394 --enable-libdrm --enable-libiec61883 --enable-chromaprint --enable-frei0r --enable-libx264 --enable-shared\n  libavutil      56. 70.100 / 56. 70.100\n  libavcodec     58.134.100 / 58.134.100\n  libavformat    58. 76.100 / 58. 76.100\n  libavdevice    58. 13.100 / 58. 13.100\n  libavfilter     7.110.100 /  7.110.100\n  libswscale      5.  9.100 /  5.  9.100\n  libswresample   3.  9.100 /  3.  9.100\n  libpostproc    55.  9.100 / 55.  9.100\n[libdav1d @ 0x5c56258d7940] libdav1d 0.9.2\nInput #0, mov,mp4,m4a,3gp,3g2,mj2, from '/kaggle/input/datasets/fasgadhsxnzmjj/mp4-dataset/treemp4.mp4':\n  Metadata:\n    major_brand     : isom\n    minor_version   : 512\n    compatible_brands: isomav01iso2mp41\n    encoder         : Lavf62.4.100\n  Duration: 00:11:49.14, start: 0.000000, bitrate: 191 kb/s\n  Stream #0:0(und): Video: av1 (Main) (av01 / 0x31307661), yuv420p(tv, bt709), 256x144 [SAR 1:1 DAR 16:9], 56 kb/s, 29.97 fps, 29.97 tbr, 30k tbn, 30k tbc (default)\n    Metadata:\n      handler_name    : VideoHandler\n      vendor_id       : [0][0][0][0]\n  Stream #0:1(eng): Audio: aac (LC) (mp4a / 0x6134706D), 44100 Hz, stereo, fltp, 127 kb/s (default)\n    Metadata:\n      handler_name    : ISO Media file produced by Google Inc.\n      vendor_id       : [0][0][0][0]\nStream mapping:\n  Stream #0:1 -> #0:0 (aac (native) -> mp3 (libmp3lame))\nPress [q] to stop, [?] for help\nOutput #0, mp3, to '/kaggle/working/output3.mp3':\n  Metadata:\n    major_brand     : isom\n    minor_version   : 512\n    compatible_brands: isomav01iso2mp41\n    TSSE            : Lavf58.76.100\n  Stream #0:0(eng): Audio: mp3, 44100 Hz, stereo, fltp, 192 kb/s (default)\n    Metadata:\n      handler_name    : ISO Media file produced by Google Inc.\n      vendor_id       : [0][0][0][0]\n      encoder         : Lavc58.134.100 libmp3lame\nsize=   16622kB time=00:11:49.12 bitrate= 192.0kbits/s speed=46.1x    \nvideo:0kB audio:16621kB subtitle:0kB other streams:0kB global headers:0kB muxing overhead: 0.004548%\nBoth `max_new_tokens` (=256) and `max_length`(=448) seem to have been set. `max_new_tokens` will take precedence. Please refer to the documentation for more information. (https://huggingface.co/docs/transformers/main/en/main_classes/text_generation)\nBoth `max_new_tokens` (=256) and `max_length`(=448) seem to have been set. `max_new_tokens` will take precedence. Please refer to the documentation for more information. (https://huggingface.co/docs/transformers/main/en/main_classes/text_generation)\nBoth `max_new_tokens` (=256) and `max_length`(=448) seem to have been set. `max_new_tokens` will take precedence. Please refer to the documentation for more information. (https://huggingface.co/docs/transformers/main/en/main_classes/text_generation)\nBoth `max_new_tokens` (=256) and `max_length`(=448) seem to have been set. `max_new_tokens` will take precedence. Please refer to the documentation for more information. (https://huggingface.co/docs/transformers/main/en/main_classes/text_generation)\nBoth `max_new_tokens` (=256) and `max_length`(=448) seem to have been set. `max_new_tokens` will take precedence. Please refer to the documentation for more information. (https://huggingface.co/docs/transformers/main/en/main_classes/text_generation)\nBoth `max_new_tokens` (=256) and `max_length`(=448) seem to have been set. `max_new_tokens` will take precedence. Please refer to the documentation for more information. (https://huggingface.co/docs/transformers/main/en/main_classes/text_generation)\n","output_type":"stream"},{"name":"stdout","text":"xin chào và rất vui với tất cả các bạn bản năng tổ tiên khiến chúng ta phấn khích trước những thứ mới mẻ kỳ lạ hoặc bất quỳ tắc đó là lý do mà những bộ phim lên bối cảnh thế giới ngoài hành tinh thì luôn có một sức hút khó giải thích nhưng bạn biết gì không nếu người ngoài hành tinh ghé thẳng trái đất họ cũng sẽ cảm thấy rằng thế giới của chúng ta kỳ lạ thậm chí không thể tìm được và thứ tạo ra cảm giác ồ hoáu đó không phải là con người hay bất kỳ. kỳ loài động vật nào khác nó là vật thứ khác một thứ mà nếu như chỉ nghe kể giống như thuộc về thế giới thần thoại hơn là phiên bản đời thực chúng khổng lồ sống lâu và có cấu trúc kỳ dị chúng không tồn tại trong phần loại sinh học và thậm chí sở hữu công nghệ mà còn người khao khát phản trọng lực chúng ta đang nói đến cây ba trước khi mà bạn phẫn nộ cho chúng ta xin mười phút để giải thích nhé. đầu tiên cây không thực sự tồn tại trong phần loại sinh học đừng để từ cây đánh lừa bạn có hàng vạn loài trên thế giới bắt đầu bằng chữ cây hoặc được xếp vào hạng cây nghe có vẻ lan quyên kiểu chắc là mọi cây đều là họ hàng tiên hoá kiểu ray mơ rẽ mả gì với nhau thực tế lại khác hoàn toàn nói như này cho dễ hiểu nhá mòe là những loài động vật hoặc họ mòe. tất cả những loài thuộc họ mòè thì đều sống trên can ăn thịt có móng vuốt thu lại được thân hình mảnh mai săn mồi cắn và cào cực hốn ở tưởng tượng như vậy gấu thì thuộc họ gấu chúng có thân hình to lớn bơi lội và leo trèo giỏi so với mỏa đuôi của gấu ngắn hơn móng vuốt thì không thụt bảo được nhưng tát phát não thì thường là lên nhặng niềm phát tỏ. họ ngựa với đặc trưng là thân hình cờ bắp cường tráng yêu sinh lý chân dài như người mẫu móng guốc một ngón và bôi nhã chuyên dụng cho việc gặm cỏ giờ thì bạn gộp ba họ này làm một và gọi chúng là thứ trên cả bốn chân được không ý là cũng không sai ý nhưng không ai làm như vậy cả bởi vì mỗi họ thì đều tách bạch bằng những nét đặc trưng riêng giờ thì bạn hãy đọc định nghĩa về cây đi. đây là thực vật lâu năm có thân dài thường có cành và lá theo định nghĩa này thì cây xồi và cây thông có họ với nhau đúng không đúng không nổ sồi thuộc họ xồi gần với cây dâu tây hơn là thông bạn không tin thì tự trả cứu đi sồi với thông chỉ giống nhau đến đoạn cùng là thực vật và có mạch thôi trong khi dâu tây và sồi thì xuống đến tận nhánh hoa hồng cứ phải gọi là ảo lòi. thật ra thì cây không phải là một loài hay là một họ chúng chỉ là một hình dạng mà vô số loài thực vật ở vô số thời điểm khác nhau trong quá khứ đã độc lập tiến hoá thành giống như là cá thì thường có cơ thể thuôn dài chim rơi vào côn trùng thì có cánh hay nhiều loài giả cua tiến hoá thành hình còn cua vậy đây được gọi là tiến hoá hội tụ hiểu đơn giản ấy thì không phải nhờ ai nhờ nhắc. những loài gọi là cây thì đều có chung tổ tiên hình dạng mà chúng ta gọi là cây thực ra chỉ là một lời giải trung mà các loài thực vật đã tìm thấy để giải quyết bài toán năng lượng hàng trăm triệu năm trước thực vật chỉ bò sát mặt đất thinh dược rồi một vài loài trở nên cao lớn và hứng hét ánh nắng cuộc đua tranh giành phổ thông cuối cùng đã tạo ra những thân cây cao hàng chục thậm chí cả trăm mét cùng với hệ thống cành và lá đổ số. thế thôi chẳng hết à thứ hai chúng gần như hoàn toàn đã chết tôi không nói đến những cái cây đang hấp hối đâu nhé ngay cả những cây trồng tràn phè nhựa sống thì phần lớn của nó đã chết thèo nghét đen trung bình khoảng hơn chín mươi chín phần trăm thể tích thân gỗ của một cây trưởng thành là các tế bào đã chết phần lõi gỗ nằm trong củng cấu tạo từ các vách tế bào chết. chức năng duy nhất của nó là nâng đỡ và giữ cho cây không sụp đổ nói cách khác thì cây cối sống được là nhờ nó đã chết ở trong lòng gần hết ôm lấy lõi gỗ là rát gỗ thay còn gọi là gỗ rát phần gỗ non có màu sáng hơn gỗ rát gồm cả tế bào sống lẫn tế bào chết ơ vừa có chức năng nâng đỡ tăng cứng cho cây lại vừa vận chuyển nước và chất dinh dưỡng từ rễ lên lá phần quà mạch gỗ. ngay cả lớp vỏ ngoài cung thuần túy là mồ chết có tác dụng bảo vệ thân cây chống lại môi trường bao gồm lửa sâu bọ và mất nước chỉ có một lớp mỏng dưới vỏ cây và bên ngoài lớp gô rác gọi là tầng sinh hoạt lá cây và các đầu rễ là chứa toàn tế bào sống dù chỉ chiếm chưa đến một phần trăm thể tích nhưng thành phần này lại gánh phần lớn công việc. giữ cho cây sống sót và phát triển chính vì vậy việc cạo bỏ hay là chặt bỏ phần vỏ ngoài của một cây thần gỗ trưởng thành nếu như đổ nghiêm trọng có thể từ từ dét chết đó lý do thứ ba chúng vận chuyển nước ngược trọng lực vận lý quy định rằng nếu như bạn có một ống bút dài vô tận và một cái mồm với lực bút siêu cấp vô địch thì độ cao tối đa mặt từ đó. bạn có thể hút nước lên bằng ống hút là bạn đoán xem đó không phải là những khoảng cách thiên văn tính bằng năm ánh sáng thậm chí không phải là độ cao quỹ đạo của trạm vũ trụ quốc tế khoảng bốn trăm km tính từ mặt đất mà là tầm chỉ chỉ mười phẩy ba mét tại vực nước biển khi bạn hút nước bạn tưởng là ống hút kéo nước lên thực ra là khi bạn hút áp suất không khí trong ánh sáng tính thời điểm. hông giảm xuống bởi vì bạn là lấy bớt khí đi bà lúc này không khí bên ngoài có áp suất lớn hơn ép lên mặt nước ở cốc đẩy cột nước trong ống hút đi lên thế nhưng lực đẩy này có giới hạn tối đa chỉ bằng áp suất khí quyển mà thôi à tại mực nước biển áp suất này rơi vào khoảng mười bốn phẩy pê ét ai hay một trăm lẻ một nghìn ba trăm năm mươi ba pát can từ công thức tính áp suất thủy tĩnh tác động bởi một cột chất lỏng tĩnh. tê bằng rô gờ hắt trong đó rô là mật độ nước xấp xỉ kg chém mệt khói gờ là gia tốc trọng trường xấp xỉ chín phẩy tám mét trên dãy bình phương và hắt là độ sâu theo phương thẳng đứng đánh bằng mét taxi ra được hát xấp xỉ mười phẩy ba mét vậy tức là tại mực nước biển áp suất khí quyển chỉ có thể đẩy cột nước lên được tối đa gần mười phẩy ba mét độ cao này chỉ đạt được khi mà sự chênh lệch áp suất. gần như là tối đa tức là áp suất ở đầu ống hút gần như trên không ta biết rằng nhiệt độ sôi của nước phụ thuộc vào áp suất không khí tại mặt đất nước sôi ở khoảng một trăm độ c thế nhưng lấy nhiệt độ sôi đun nước trên đỉnh everest nơi mà không khí loãng hơn và áp suất giảm xuống nước sôi ở chỉ bảy mệt mốt độ c trong ống hút phía trên cột nước cao mười phẩy ba mét. gần như chân không thế nên nước sôi và chuyển thành hơi ngay tại nhật đồ phòng hơi nước làm tăng áp suất tại đầu ống hút giảm sợi chanh lệch áp suất từ đó giảm lực đẩy lên cột nước nói tóm lại thì không có cách nào để hút nước lên cao quá mười phẩy ba mét nhưng cây cối cao hơn mười mét lại có ở khắp nơi thậm chí cái cây cao nhất thế giới hay thi liền một cây tùng đỏ ven biển nằm đâu đó trong kheung cỡ cổng. vườn quốc gia rách út của california hoa kỳ lại đạt tới m cỡ một tòa nhã tầm cùng đỉnh lóc kịch trần câu hỏi đặt ra là hiberian nói riêng và tất cả những cây cao hơn m nói chung đã vận chuyển nước ngược trọng lực và phản lại vật lý như thế nào theo các chuyên gia thì đó là nhờ áp suất âm hay sức căng bề mặt của nước trong một phần tờ nước các nguyên tờ hydro tích cực. điện dương hút lấy các nguyên từ oxy tích điện tâm tương tự các phần tử nước có xu hướng dính lấy nhau tính dính này tạo ra sức căng bề mặt của nước khi nước bốc hơi khỏi lá phần tử nước thoát ra ngoài sẽ hút lấy các phần tử nước liền kề vì các phần tử nước bám dính nhau và bám vào mạch gỗ nên cả cột nước sẽ được kéo liên tục từ rễ lên lá đầu này khả dĩ một phần là bởi mạch gỗ rất cứng. nhiếp chúng có thể dài hàng mét thế nhưng chỉ rộng vài trăm microsoft tự sợi tóc người hoặc lớn hợp chút khi mảnh gỗ hẹp nước bám nhiều vào thành mạch cột nước được kéo lên liên tục và ít xuất hiện bọt khí gây đất cổ nước cây là những ông vua sinh tồn nếu như bạn có dịp về những ngôi làng cổ không khó để tìm được những cây đa cây đề có tuổi đời theo như các thời điểm cổ thì vậy mà bạn nhận chung tâm thì sao chung tâm làm những cây dịp không khí nhau và nhắc nhau nếu như các thời điểm không thế nhau nhẫn các nhóm người nhẫn hàng quý hiệp non không thế nhẫn nhẫn nhẫn nhẫn nhẫn nhẫn nhẫn nhẫn nhẫn nhẫn nh  cũ là vài trăm năm thậm chí là nghìn năm một cách chính thức cá thể cây cổ nhất thế giới mà không phải là khóm phổ tính là một cây thông rích tô côn tên là mê thu sena nằm trên dãy guai mao tần ở california mỹ với tuổi đời ước tính hơn bốn nghìn tám trăm năm mười lăm tên gọi của nó được đặt theo người cao tuổi nhất được nhắc đến trong kinh thánh để bạn dễ hình dùng thì cái cây này đã tồn tại từ đầu thời. hùng vương trở đến nay à tuy nhiên nếu như bạn mở rộng phạm vi một chút thì cái cây cổ đại nhất trái đất mà vẫn còn sống là păn đổ nó không phải một mà là bốn mươi bảy nghìn thân cây dương lá rung được sinh ra từ một cây dương lá rung được tổ tiên bà phủ diện tích khoảng bốn trăm ba mươi nghìn mét vuông và nặng khoảng sáu nghìn tấn tức là cỡ một nghìn hai trăm con vận cỏ cho phè trưởng thành theo ước tính mới nhất vào năm hai nghìn không năm. tuổi thọ của khóm pán đô dao động từ chín nghìn cho đến mười sáu nghìn năm điều đó có nghĩa là nó đã nhấu lên kể từ khi mà những người đầu tiên đi bộ từ châu á qua châu mỹ sống sót qua những trận hạn hán đã đẩy lùi sự tiến bộ của các xã hội loài người trong nhiều thế kỷ và biết đâu chúng vẫn sẽ còn sống sau khi màn đảm văn minh của chúng ta đã lụi tàn. vẫn còn rất nhiều sự thật khù khoảng và khó tin về cây cối anh chị em nhớ đón xem trong thời gian tới nhé các bạn muốn vi phách làm về chủ đề gì tiếp theo xin mời comment bên dưới còn bây giờ xin chào và hẹn gặp lại.\n","output_type":"stream"}],"execution_count":5}]}